<mxfile host="app.diagrams.net" agent="Mozilla/5.0 (Windows NT 10.0; Win64; x64) AppleWebKit/537.36 (KHTML, like Gecko) Chrome/137.0.0.0 Safari/537.36" version="27.1.4">
  <diagram name="Page-1" id="g3OE6t035zjwOs0yImcq">
    <mxGraphModel dx="946" dy="644" grid="1" gridSize="10" guides="1" tooltips="1" connect="1" arrows="1" fold="1" page="1" pageScale="1" pageWidth="827" pageHeight="1169" math="0" shadow="0">
      <root>
        <mxCell id="0" />
        <mxCell id="1" parent="0" />
        <mxCell id="YBL1CYbJKdlLU7fEDy9L-3" value="" style="edgeStyle=orthogonalEdgeStyle;rounded=0;orthogonalLoop=1;jettySize=auto;html=1;" edge="1" parent="1" target="YBL1CYbJKdlLU7fEDy9L-2">
          <mxGeometry relative="1" as="geometry">
            <mxPoint x="360" y="240" as="sourcePoint" />
          </mxGeometry>
        </mxCell>
        <mxCell id="YBL1CYbJKdlLU7fEDy9L-5" value="" style="edgeStyle=orthogonalEdgeStyle;rounded=0;orthogonalLoop=1;jettySize=auto;html=1;" edge="1" parent="1" source="YBL1CYbJKdlLU7fEDy9L-2" target="YBL1CYbJKdlLU7fEDy9L-4">
          <mxGeometry relative="1" as="geometry" />
        </mxCell>
        <mxCell id="YBL1CYbJKdlLU7fEDy9L-2" value="Add to network/&lt;div&gt;Build&amp;nbsp;&lt;div&gt;network&lt;/div&gt;&lt;/div&gt;" style="rounded=1;whiteSpace=wrap;html=1;" vertex="1" parent="1">
          <mxGeometry x="300" y="260" width="120" height="60" as="geometry" />
        </mxCell>
        <mxCell id="YBL1CYbJKdlLU7fEDy9L-7" value="" style="edgeStyle=orthogonalEdgeStyle;rounded=0;orthogonalLoop=1;jettySize=auto;html=1;" edge="1" parent="1" source="YBL1CYbJKdlLU7fEDy9L-4" target="YBL1CYbJKdlLU7fEDy9L-6">
          <mxGeometry relative="1" as="geometry" />
        </mxCell>
        <mxCell id="YBL1CYbJKdlLU7fEDy9L-4" value="Compute activity scores" style="rounded=1;whiteSpace=wrap;html=1;" vertex="1" parent="1">
          <mxGeometry x="300" y="350" width="120" height="60" as="geometry" />
        </mxCell>
        <mxCell id="YBL1CYbJKdlLU7fEDy9L-9" style="edgeStyle=orthogonalEdgeStyle;rounded=0;orthogonalLoop=1;jettySize=auto;html=1;exitX=1;exitY=0.5;exitDx=0;exitDy=0;entryX=1;entryY=0.5;entryDx=0;entryDy=0;" edge="1" parent="1" source="YBL1CYbJKdlLU7fEDy9L-6" target="YBL1CYbJKdlLU7fEDy9L-8">
          <mxGeometry relative="1" as="geometry" />
        </mxCell>
        <mxCell id="YBL1CYbJKdlLU7fEDy9L-6" value="Compute pagerank integrated with activity scores" style="rounded=1;whiteSpace=wrap;html=1;" vertex="1" parent="1">
          <mxGeometry x="300" y="440" width="120" height="60" as="geometry" />
        </mxCell>
        <mxCell id="YBL1CYbJKdlLU7fEDy9L-8" value="Users" style="ellipse;whiteSpace=wrap;html=1;aspect=fixed;" vertex="1" parent="1">
          <mxGeometry x="320" y="160" width="80" height="80" as="geometry" />
        </mxCell>
      </root>
    </mxGraphModel>
  </diagram>
</mxfile>
